<?xml version="1.0" encoding="utf-8"?>
<!-- Generator: Adobe Illustrator 22.1.0, SVG Export Plug-In . SVG Version: 6.00 Build 0)  -->
<svg version="1.1" id="图层_1" xmlns="http://www.w3.org/2000/svg" xmlns:xlink="http://www.w3.org/1999/xlink" x="0px" y="0px"
	 viewBox="0 0 841.9 595.3" style="enable-background:new 0 0 841.9 595.3;" xml:space="preserve">
<style type="text/css">
	.st0{fill:#FFFFFF;}
</style>
<g>
	<path class="st0" d="M594.3,336.6c18.8-32.6,19.7-64.5-2.9-94.5c-21.5-28.5-51.4-37.2-86.2-30.8c-1.2-26.9-13.7-46.6-39.7-55.6
		c-18.9-6.6-36.6-2.1-52.2,11.1c0.6,0.6,0.9,1,1.3,1.2c39.7,16.8,66.8,45.2,80,86.5c0.4,1.4,2.6,2.7,4.2,3.1
		c6.6,1.6,13.4,2.5,19.9,4.3c36.8,9.9,62.3,45.1,60.7,83.5c-0.5,12.3-3.2,24-8.7,35c-2.3,4.6-6.7,6.7-11.1,5.8
		c-4.4-0.9-8-4.9-8.1-9.6c-0.1-2.4,1-4.8,1.6-7.2c1.9-8,5.2-16,5.6-24.1c1.3-31.5-21.4-59.4-52.4-65.7c-1.9-0.4-3.9,0-5.9,0
		c2.1,19-0.1,37.2-4.2,55.3c-1.8,7.9-7.7,12.2-14.2,10.6c-5.8-1.5-8.8-8.7-6.7-16.1c5-17.4,6-34.9,2.8-52.8
		c-11.3-63.3-67.4-105-131.2-97.4c-45.2,5.4-86.3,40.1-98.7,84.3c-3.1,11.1-4.3,22.7-6.4,34.6c-5,0.5-11,0.7-16.8,1.8
		c-30.7,5.8-49.5,29.3-48.9,60.5c0.6,28.7,25.9,54.4,54.5,54.7c35.8,0.3,71.7,0.1,107.5,0c54.8-0.1,109.6-0.4,164.5-0.4
		c28.7,0,57.3,0.6,86,0.4c16-0.1,30.7-13,34.4-29.2c4.2-18.1-2.8-35.2-17.7-43.3C601.7,340.6,598.2,338.7,594.3,336.6z"/>
	<path d="M594.3,336.6c3.9,2.1,7.4,4,10.9,5.9c15,8,22,25.1,17.7,43.3c-3.8,16.1-18.5,29.1-34.4,29.2c-28.7,0.2-57.3-0.4-86-0.4
		c-54.8,0-109.6,0.3-164.5,0.4c-35.8,0.1-71.7,0.3-107.5,0c-28.6-0.3-54-26-54.5-54.7c-0.6-31.2,18.2-54.7,48.9-60.5
		c5.8-1.1,11.8-1.3,16.8-1.8c2.2-11.9,3.3-23.6,6.4-34.6c12.5-44.2,53.6-78.9,98.7-84.3c63.8-7.6,119.9,34,131.2,97.4
		c3.2,17.9,2.1,35.4-2.8,52.8c-2.1,7.4,0.8,14.6,6.7,16.1c6.5,1.6,12.4-2.7,14.2-10.6c4.1-18.1,6.3-36.3,4.2-55.3c2,0,4-0.3,5.9,0
		c31,6.3,53.7,34.2,52.4,65.7c-0.3,8.1-3.6,16.1-5.6,24.1c-0.6,2.4-1.7,4.8-1.6,7.2c0.1,4.7,3.8,8.7,8.1,9.6
		c4.4,0.9,8.9-1.2,11.1-5.8c5.5-11,8.2-22.7,8.7-35c1.5-38.3-24-73.6-60.7-83.5c-6.6-1.8-13.3-2.7-19.9-4.3
		c-1.6-0.4-3.7-1.7-4.2-3.1c-13.2-41.3-40.3-69.7-80-86.5c-0.4-0.2-0.7-0.6-1.3-1.2c15.6-13.2,33.3-17.6,52.2-11.1
		c26,9,38.5,28.8,39.7,55.6c34.9-6.4,64.7,2.3,86.2,30.8C614.1,272.1,613.2,304,594.3,336.6z"/>
</g>
</svg>
